<?xml version="1.0" encoding="UTF-8"?>
<!DOCTYPE svg PUBLIC "-//W3C//DTD SVG 1.1//EN" "http://www.w3.org/Graphics/SVG/1.1/DTD/svg11.dtd">
<svg xmlns="http://www.w3.org/2000/svg" version="1.1" width="225px" height="225px" style="shape-rendering:geometricPrecision; text-rendering:geometricPrecision; image-rendering:optimizeQuality; fill-rule:evenodd; clip-rule:evenodd" xmlns:xlink="http://www.w3.org/1999/xlink">
<g><path style="opacity:1" fill="#fcfcfc" d="M -0.5,-0.5 C 74.5,-0.5 149.5,-0.5 224.5,-0.5C 224.5,74.5 224.5,149.5 224.5,224.5C 149.5,224.5 74.5,224.5 -0.5,224.5C -0.5,149.5 -0.5,74.5 -0.5,-0.5 Z"/></g>
<g><path style="opacity:1" fill="#0f0f0f" d="M 100.5,5.5 C 156.587,3.60052 194.753,28.6005 215,80.5C 227.13,127.096 215.297,166.263 179.5,198C 142.359,224.725 103.025,228.392 61.5,209C 14.3403,179.898 -3.49302,138.065 8,83.5C 23.4524,39.2111 54.2857,13.2111 100.5,5.5 Z"/></g>
<g><path style="opacity:1" fill="#f6f6f6" d="M 102.5,8.5 C 152.123,7.38027 187.623,29.0469 209,73.5C 224.769,118.334 215.936,157.501 182.5,191C 149.224,218.455 112.224,224.789 71.5,210C 30.4995,190.519 9.16614,158.019 7.5,112.5C 9.35308,72.9463 27.0197,42.7796 60.5,22C 73.748,14.7492 87.748,10.2492 102.5,8.5 Z"/></g>
<g><path style="opacity:1" fill="#202020" d="M 209.5,20.5 C 204.813,18.7968 202.98,15.4634 204,10.5C 206.541,5.93146 210.375,4.43146 215.5,6C 219.277,8.91087 220.444,12.7442 219,17.5C 216.423,21.0683 213.256,22.0683 209.5,20.5 Z"/></g>
<g><path style="opacity:1" fill="#eaeaea" d="M 209.5,20.5 C 207.307,18.6446 205.974,16.3113 205.5,13.5C 205.286,11.0582 206.286,9.39152 208.5,8.5C 210.011,6.55888 212.011,6.05888 214.5,7C 220.953,14.4105 219.286,18.9105 209.5,20.5 Z"/></g>
<g><path style="opacity:1" fill="#242424" d="M 213.5,9.5 C 216.106,10.8499 216.106,12.3499 213.5,14C 214.167,15 214.833,16 215.5,17C 213.924,16.8481 212.591,16.0148 211.5,14.5C 210.824,15.6016 210.158,16.6016 209.5,17.5C 209.336,14.8127 209.503,12.146 210,9.5C 210.483,10.448 210.649,11.448 210.5,12.5C 211.675,12.719 212.675,12.3857 213.5,11.5C 212.45,10.5712 212.45,9.90455 213.5,9.5 Z"/></g>
<g><path style="opacity:1" fill="#a7a7a7" d="M 208.5,8.5 C 210.415,8.21552 212.081,8.54885 213.5,9.5C 212.45,9.90455 212.45,10.5712 213.5,11.5C 212.675,12.3857 211.675,12.719 210.5,12.5C 210.649,11.448 210.483,10.448 210,9.5C 209.503,12.146 209.336,14.8127 209.5,17.5C 208.523,14.7131 208.19,11.7131 208.5,8.5 Z"/></g>
<g><path style="opacity:1" fill="#1c1c1c" d="M 110.5,28.5 C 110.5,26.8333 110.5,25.1667 110.5,23.5C 108.585,23.2155 106.919,23.5489 105.5,24.5C 105.762,25.9778 105.429,27.3112 104.5,28.5C 103.167,25.1667 103.167,21.8333 104.5,18.5C 105.429,19.6888 105.762,21.0222 105.5,22.5C 106.833,22.5 108.167,22.5 109.5,22.5C 109.5,20.8333 109.5,19.1667 109.5,17.5C 110.5,17.5 111.5,17.5 112.5,17.5C 113.08,21.649 112.414,25.3157 110.5,28.5 Z"/></g>
<g><path style="opacity:1" fill="#121212" d="M 117.5,18.5 C 118.5,18.5 119.5,18.5 120.5,18.5C 120.647,21.4431 121.313,24.2764 122.5,27C 122.167,27.5 121.833,28 121.5,28.5C 119.201,25.9858 116.868,25.9858 114.5,28.5C 114.167,28.1667 113.833,27.8333 113.5,27.5C 115.12,24.5963 116.453,21.5963 117.5,18.5 Z"/></g>
<g><path style="opacity:1" fill="#191919" d="M 95.5,18.5 C 97.1439,18.2865 98.6439,18.6198 100,19.5C 100.688,20.3317 100.521,20.9984 99.5,21.5C 98.109,20.3554 96.7757,20.3554 95.5,21.5C 96.714,23.0691 98.3807,23.9024 100.5,24C 101.833,25.6667 101.833,27.3333 100.5,29C 98.5273,29.4955 96.5273,29.6621 94.5,29.5C 94.2619,25.9007 95.2619,25.5673 97.5,28.5C 98.5,28.1667 99.1667,27.5 99.5,26.5C 93.8652,25.6045 92.5319,22.9378 95.5,18.5 Z"/></g>
<g><path style="opacity:1" fill="#1c1c1c" d="M 88.5,20.5 C 90.6877,21.5357 90.6877,23.0357 88.5,25C 90.1667,26.6667 91.8333,28.3333 93.5,30C 91.0966,30.6302 89.2633,29.7969 88,27.5C 87.7978,29.2556 87.2978,30.9223 86.5,32.5C 85.1678,29.1768 83.8345,25.8435 82.5,22.5C 83.325,21.6143 84.325,21.281 85.5,21.5C 86.1225,26.3338 87.1225,26.0004 88.5,20.5 Z"/></g>
<g><path style="opacity:1" fill="#0f0f0f" d="M 125.5,18.5 C 126.5,18.5 127.5,18.5 128.5,18.5C 128.826,21.3113 129.659,23.978 131,26.5C 131.5,25 132,23.5 132.5,22C 132.85,20.7425 133.517,20.4092 134.5,21C 133.69,24.2025 132.69,27.3692 131.5,30.5C 129.804,28.4544 128.471,26.1211 127.5,23.5C 126.833,25.5 126.167,27.5 125.5,29.5C 124.921,25.9043 124.921,22.2376 125.5,18.5 Z"/></g>
<g><path style="opacity:1" fill="#090909" d="M 78.5,23.5 C 79.7498,23.5774 80.5831,24.244 81,25.5C 81.7348,27.8713 82.5682,30.2046 83.5,32.5C 83.1667,32.8333 82.8333,33.1667 82.5,33.5C 80.5821,30.4157 79.2488,27.0824 78.5,23.5 Z"/></g>
<g><path style="opacity:1" fill="#ececec" d="M 118.5,21.5 C 119.776,22.3864 119.776,23.3864 118.5,24.5C 117.438,23.5754 117.438,22.5754 118.5,21.5 Z"/></g>
<g><path style="opacity:1" fill="#1b1b1b" d="M 139.5,22.5 C 140.5,22.5 141.5,22.5 142.5,22.5C 142.823,26.226 142.489,29.8927 141.5,33.5C 140.614,32.675 140.281,31.675 140.5,30.5C 138.131,30.8511 135.797,31.0178 133.5,31C 135.72,28.2872 137.72,25.4539 139.5,22.5 Z"/></g>
<g><path style="opacity:1" fill="#8e8e8e" d="M 105.5,24.5 C 106.919,23.5489 108.585,23.2155 110.5,23.5C 110.5,25.1667 110.5,26.8333 110.5,28.5C 109.566,27.4324 109.232,26.099 109.5,24.5C 108.167,24.5 106.833,24.5 105.5,24.5 Z"/></g>
<g><path style="opacity:1" fill="#dedede" d="M 139.5,25.5 C 140.598,26.6009 140.765,27.9343 140,29.5C 138.489,28.436 138.323,27.1026 139.5,25.5 Z"/></g>
<g><path style="opacity:1" fill="#1f1f1f" d="M 72.5,25.5 C 74.3464,25.2222 75.6798,25.8888 76.5,27.5C 75.2839,28.0959 73.9506,28.2626 72.5,28C 71.1667,28.6667 71.1667,29.3333 72.5,30C 74.764,30.2362 76.9307,30.7362 79,31.5C 79.7112,33.3668 79.2112,34.8668 77.5,36C 75.272,36.8201 73.272,36.4868 71.5,35C 73.5767,34.8078 75.5767,34.3078 77.5,33.5C 74.7428,32.9708 72.2428,31.9708 70,30.5C 70.0579,28.5646 70.8912,26.8979 72.5,25.5 Z"/></g>
<g><path style="opacity:1" fill="#0d0d0d" d="M 58.5,33.5 C 62.3958,34.4525 65.7291,36.4525 68.5,39.5C 67.2839,40.0959 65.9506,40.2626 64.5,40C 63.2283,41.3068 62.2283,42.8068 61.5,44.5C 60.1199,40.9307 59.1199,37.264 58.5,33.5 Z"/></g>
<g><path style="opacity:1" fill="#1f1f1f" d="M 151.5,27.5 C 155.509,27.0136 157.342,28.6803 157,32.5C 156.221,31.2718 155.221,30.2718 154,29.5C 153.5,29.8333 153,30.1667 152.5,30.5C 155.021,32.2601 155.854,34.5934 155,37.5C 151.302,39.1692 148.802,38.0026 147.5,34C 147.833,33.5 148.167,33 148.5,32.5C 149.262,33.6283 149.929,34.7949 150.5,36C 154.191,36.0505 154.358,34.8839 151,32.5C 150.36,30.735 150.527,29.0683 151.5,27.5 Z"/></g>
<g><path style="opacity:1" fill="#101010" d="M 161.5,33.5 C 162.5,33.5 163.5,33.5 164.5,33.5C 164.455,37.3465 163.622,41.0131 162,44.5C 161.236,40.5276 159.069,38.861 155.5,39.5C 157.533,37.4934 159.533,35.4934 161.5,33.5 Z"/></g>
<g><path style="opacity:1" fill="#0f0f0f" d="M 54.5,36.5 C 55.5218,39.8807 56.8551,43.2141 58.5,46.5C 58.1667,46.8333 57.8333,47.1667 57.5,47.5C 54.8338,45.1647 51.8338,43.3314 48.5,42C 50.0225,40.6718 51.6892,40.8384 53.5,42.5C 53.813,40.4804 54.1464,38.4804 54.5,36.5 Z"/></g>
<g><path style="opacity:1" fill="#c5c5c5" d="M 60.5,35.5 C 62.7279,36.3218 63.3946,37.6552 62.5,39.5C 61.2949,38.4231 60.6282,37.0898 60.5,35.5 Z"/></g>
<g><path style="opacity:1" fill="#101010" d="M 100.5,37.5 C 134.733,34.7003 160.9,47.7003 179,76.5C 194.757,111.126 189.59,142.292 163.5,170C 131.82,194.309 99.153,195.643 65.5,174C 38.091,149.867 29.9244,120.367 41,85.5C 52.6732,59.3216 72.5065,43.3216 100.5,37.5 Z"/></g>
<g><path style="opacity:1" fill="#c8c8c8" d="M 160.5,36.5 C 162.465,36.9483 162.798,37.9483 161.5,39.5C 159.481,38.8671 159.147,37.8671 160.5,36.5 Z"/></g>
<g><path style="opacity:1" fill="#161616" d="M 169.5,37.5 C 170.995,37.4148 171.995,38.0815 172.5,39.5C 171.399,41.6416 170.399,43.8083 169.5,46C 171.699,45.2547 174.033,44.4213 176.5,43.5C 177.167,43.8333 177.833,44.1667 178.5,44.5C 176.628,47.5819 174.295,50.2486 171.5,52.5C 170.479,51.9984 170.312,51.3317 171,50.5C 172.167,49.3333 173.333,48.1667 174.5,47C 172.24,46.9558 170.24,47.7892 168.5,49.5C 168.167,49 167.833,48.5 167.5,48C 170.494,40.1385 169.661,39.6385 165,46.5C 164.5,46 164,45.5 163.5,45C 166.094,42.9135 168.094,40.4135 169.5,37.5 Z"/></g>
<g><path style="opacity:1" fill="#fafafa" d="M 102.5,40.5 C 138.714,38.5819 164.547,53.9152 180,86.5C 190.535,117.841 184.035,145.007 160.5,168C 130.203,191.443 99.2033,192.443 67.5,171C 43.08,150.198 34.58,124.031 42,92.5C 52.2353,63.4198 72.402,46.0865 102.5,40.5 Z"/></g>
<g><path style="opacity:1" fill="#1a1a1a" d="M 48.5,55.5 C 47.1177,52.6057 45.1177,50.1057 42.5,48C 44.08,45.7049 46.08,44.3716 48.5,44C 45.9414,45.3234 45.2747,47.1567 46.5,49.5C 47.8139,48.6872 48.9805,47.6872 50,46.5C 50.3334,48.0468 49.8334,49.3801 48.5,50.5C 48.8076,51.3081 49.3076,51.9747 50,52.5C 51.1707,50.3843 52.6707,49.7176 54.5,50.5C 53.0692,52.9377 51.0692,54.6044 48.5,55.5 Z"/></g>
<g><path style="opacity:1" fill="#070707" d="M 179.5,47.5 C 181.028,47.5173 181.528,48.184 181,49.5C 178.984,51.684 176.817,53.684 174.5,55.5C 173.479,54.9984 173.312,54.3317 174,53.5C 176.04,51.6298 177.873,49.6298 179.5,47.5 Z"/></g>
<g><path style="opacity:1" fill="#131313" d="M 182.5,51.5 C 182.897,50.475 183.563,50.3083 184.5,51C 186.898,52.6356 188.065,54.8023 188,57.5C 187.311,56.6433 186.478,55.9767 185.5,55.5C 183.424,57.2877 181.257,58.9544 179,60.5C 178.5,60 178,59.5 177.5,59C 180.02,57.2368 182.353,55.2368 184.5,53C 183.956,52.2828 183.289,51.7828 182.5,51.5 Z"/></g>
<g><path style="opacity:1" fill="#1c1c1c" d="M 48.5,55.5 C 47.6109,57.736 46.2776,59.736 44.5,61.5C 41.2157,59.883 38.5491,57.5497 36.5,54.5C 37.8149,52.6841 39.3149,51.0175 41,49.5C 41.1405,51.2555 40.6405,52.9222 39.5,54.5C 39.8333,54.8333 40.1667,55.1667 40.5,55.5C 44.744,52.6215 45.4106,53.2881 42.5,57.5C 43,57.8333 43.5,58.1667 44,58.5C 45.5072,57.4451 47.0072,56.4451 48.5,55.5 Z"/></g>
<g><path style="opacity:1" fill="#1a1a1a" d="M 33.5,58.5 C 36.9496,57.7564 38.6162,59.0897 38.5,62.5C 40.1992,62.3398 41.8659,62.5065 43.5,63C 41.6241,64.0173 39.6241,64.8506 37.5,65.5C 38.09,66.7989 39.09,67.6322 40.5,68C 39.9747,68.6924 39.3081,69.1924 38.5,69.5C 35.5265,67.8532 32.8599,65.8532 30.5,63.5C 31.2599,61.6396 32.2599,59.973 33.5,58.5 Z"/></g>
<g><path style="opacity:1" fill="#090909" d="M 64.5,125.5 C 64.1695,105.326 64.5029,85.3264 65.5,65.5C 81.7268,69.1581 97.2268,67.1581 112,59.5C 127.499,67.8633 143.666,69.53 160.5,64.5C 160.667,84.5028 160.5,104.503 160,124.5C 154.507,146.98 142.007,164.48 122.5,177C 119.221,179.223 115.721,181.057 112,182.5C 89.4573,171.438 73.7906,154.104 65,130.5C 64.5065,128.866 64.3398,127.199 64.5,125.5 Z"/></g>
<g><path style="opacity:1" fill="#dbdbdb" d="M 34.5,60.5 C 35.5862,60.62 36.2528,61.2867 36.5,62.5C 36.1667,63.1667 35.8333,63.8333 35.5,64.5C 34.5,64 33.5,63.5 32.5,63C 33.3805,62.2917 34.0472,61.4584 34.5,60.5 Z"/></g>
<g><path style="opacity:1" fill="#2f2f2f" d="M 65.5,65.5 C 64.5029,85.3264 64.1695,105.326 64.5,125.5C 63.172,105.329 63.172,84.9961 64.5,64.5C 65.1067,64.6236 65.44,64.9569 65.5,65.5 Z"/></g>
<g><path style="opacity:1" fill="#cecece" d="M 107.5,65.5 C 108.209,64.596 109.209,64.2627 110.5,64.5C 110.833,102.173 110.5,139.839 109.5,177.5C 108.893,177.376 108.56,177.043 108.5,176.5C 109.167,158.17 109.5,139.67 109.5,121C 109.5,102.154 108.833,83.6544 107.5,65.5 Z"/></g>
<g><path style="opacity:1" fill="#bbbbbb" d="M 114.5,64.5 C 114.168,102.004 114.502,139.337 115.5,176.5C 115.44,177.043 115.107,177.376 114.5,177.5C 113.17,139.669 113.17,102.002 114.5,64.5 Z"/></g>
<g><path style="opacity:1" fill="#171717" d="M 189.5,58.5 C 190.289,58.7828 190.956,59.2828 191.5,60C 189.388,60.9057 188.555,62.4057 189,64.5C 190.889,65.0974 192.722,65.4307 194.5,65.5C 191.876,68.3261 188.876,69.6595 185.5,69.5C 189.21,67.759 189.376,65.759 186,63.5C 184.759,65.4206 183.259,65.754 181.5,64.5C 184.235,62.4793 186.901,60.4793 189.5,58.5 Z"/></g>
<g><path style="opacity:1" fill="#fcfcfc" d="M 107.5,65.5 C 108.833,83.6544 109.5,102.154 109.5,121C 109.5,139.67 109.167,158.17 108.5,176.5C 86.9419,164.941 73.2752,147.275 67.5,123.5C 66.8467,105.136 67.5134,87.1356 69.5,69.5C 82.4978,71.262 95.1644,69.9287 107.5,65.5 Z"/></g>
<g><path style="opacity:1" fill="#fbfbfb" d="M 114.5,64.5 C 127.334,69.8598 140.667,71.5264 154.5,69.5C 156.487,87.4695 157.154,105.803 156.5,124.5C 152.593,140.927 144.26,154.76 131.5,166C 126.537,170.142 121.204,173.642 115.5,176.5C 114.502,139.337 114.168,102.004 114.5,64.5 Z"/></g>
<g><path style="opacity:1" fill="#131313" d="M 28.5,66.5 C 29.2389,66.369 29.9056,66.5357 30.5,67C 29.269,68.1827 29.269,69.3493 30.5,70.5C 32.4134,71.373 34.2467,72.373 36,73.5C 36.6877,74.3317 36.521,74.9984 35.5,75.5C 33.3295,73.9138 30.9962,72.5804 28.5,71.5C 27.8333,72.1667 27.1667,72.8333 26.5,73.5C 26.1667,73.1667 25.8333,72.8333 25.5,72.5C 26.5133,70.4734 27.5133,68.4734 28.5,66.5 Z"/></g>
<g><path style="opacity:1" fill="#080808" d="M 194.5,68.5 C 195.756,68.4614 196.756,68.9614 197.5,70C 194.5,71.5 191.5,73 188.5,74.5C 188.167,74.1667 187.833,73.8333 187.5,73.5C 190.077,72.0569 192.41,70.3902 194.5,68.5 Z"/></g>
<g><path style="opacity:1" fill="#535353" d="M 69.5,69.5 C 67.5134,87.1356 66.8467,105.136 67.5,123.5C 66.5032,105.341 66.1698,87.0076 66.5,68.5C 67.791,68.2627 68.791,68.596 69.5,69.5 Z"/></g>
<g><path style="opacity:1" fill="#7b7b7b" d="M 154.5,69.5 C 155.209,68.596 156.209,68.2627 157.5,68.5C 157.83,87.3408 157.497,106.007 156.5,124.5C 157.154,105.803 156.487,87.4695 154.5,69.5 Z"/></g>
<g><path style="opacity:1" fill="#151515" d="M 23.5,75.5 C 27.046,76.272 30.3793,77.6053 33.5,79.5C 32.2243,80.6446 30.891,80.6446 29.5,79.5C 26.6518,82.4938 27.3185,84.4938 31.5,85.5C 28.1506,86.2727 24.9839,85.606 22,83.5C 21.3123,82.6683 21.479,82.0016 22.5,81.5C 24.9483,82.9895 26.6149,82.3229 27.5,79.5C 25.6253,78.5905 24.292,77.2572 23.5,75.5 Z"/></g>
<g><path style="opacity:1" fill="#181818" d="M 198.5,75.5 C 199.75,75.5774 200.583,76.244 201,77.5C 201.991,79.4473 202.325,81.4473 202,83.5C 201.261,82.4258 200.261,81.7591 199,81.5C 196.492,82.8632 193.992,83.1965 191.5,82.5C 194.167,81.1667 196.833,79.8333 199.5,78.5C 198.873,77.5832 198.539,76.5832 198.5,75.5 Z"/></g>
<g><path style="opacity:1" fill="#191919" d="M 202.5,85.5 C 203.748,86.3339 204.415,87.6672 204.5,89.5C 205.097,93.9138 203.43,95.2471 199.5,93.5C 194.489,95.8097 194.156,94.8097 198.5,90.5C 196.922,89.7022 195.256,89.2022 193.5,89C 196.422,87.3971 199.422,86.2304 202.5,85.5 Z"/></g>
<g><path style="opacity:1" fill="#1e1e1e" d="M 20.5,86.5 C 21.552,86.3505 22.552,86.5172 23.5,87C 20.6645,88.4399 20.1645,90.2733 22,92.5C 26.9275,85.3661 29.2608,86.0328 29,94.5C 27.8173,95.731 26.6507,95.731 25.5,94.5C 28.4291,93.3514 28.9291,91.6847 27,89.5C 21.0887,96.6957 18.922,95.6957 20.5,86.5 Z"/></g>
<g><path style="opacity:1" fill="#cacaca" d="M 199.5,88.5 C 200.833,88.5 202.167,88.5 203.5,88.5C 203.778,90.3464 203.111,91.6798 201.5,92.5C 199.889,91.6798 199.222,90.3464 199.5,88.5 Z"/></g>
<g><path style="opacity:1" fill="#0e0e0e" d="M 93.5,93.5 C 102.332,95.8179 105.498,101.485 103,110.5C 101.542,112.96 99.7089,115.127 97.5,117C 100.257,121.179 103.257,125.179 106.5,129C 101.467,129.829 96.467,129.662 91.5,128.5C 90,126.167 88.5,123.833 87,121.5C 86.5026,124.146 86.3359,126.813 86.5,129.5C 82.8333,129.5 79.1667,129.5 75.5,129.5C 75.5,117.5 75.5,105.5 75.5,93.5C 81.5,93.5 87.5,93.5 93.5,93.5 Z"/></g>
<g><path style="opacity:1" fill="#0e0e0e" d="M 118.5,94.5 C 122.351,93.1905 126.351,93.1905 130.5,94.5C 132.43,98.4578 134.263,102.458 136,106.5C 137.704,102.259 139.538,98.0928 141.5,94C 145.5,93.3333 149.5,93.3333 153.5,94C 148.479,105.877 143.313,117.71 138,129.5C 136.644,130.38 135.144,130.714 133.5,130.5C 129.018,118.213 124.018,106.213 118.5,94.5 Z"/></g>
<g><path style="opacity:1" fill="#808080" d="M 93.5,93.5 C 87.5,93.5 81.5,93.5 75.5,93.5C 75.5,105.5 75.5,117.5 75.5,129.5C 74.5048,117.345 74.1714,105.011 74.5,92.5C 81.0221,92.1765 87.3554,92.5098 93.5,93.5 Z"/></g>
<g><path style="opacity:1" fill="#f4f4f4" d="M 92.5,100.5 C 89.3752,99.5206 86.0419,99.1872 82.5,99.5C 82.5,108.5 82.5,117.5 82.5,126.5C 81.1667,126.5 79.8333,126.5 78.5,126.5C 78.5,116.5 78.5,106.5 78.5,96.5C 83.8437,96.334 89.1771,96.5006 94.5,97C 100.612,100.247 102.112,105.08 99,111.5C 96.6959,113.068 94.1959,114.235 91.5,115C 94.3585,118.358 97.0251,121.858 99.5,125.5C 97.5,126.833 95.5,126.833 93.5,125.5C 91.527,122.36 89.3603,119.36 87,116.5C 86.5045,114.527 86.3379,112.527 86.5,110.5C 93.4933,112.004 96.3267,109.337 95,102.5C 94.2917,101.619 93.4584,100.953 92.5,100.5 Z"/></g>
<g><path style="opacity:1" fill="#212121" d="M 203.5,95.5 C 204.5,95.5 205.5,95.5 206.5,95.5C 206.5,96.5 206.5,97.5 206.5,98.5C 203.813,98.3359 201.146,98.5026 198.5,99C 197.385,101.894 198.552,103.061 202,102.5C 203.561,102.397 205.061,102.063 206.5,101.5C 207.386,102.325 207.719,103.325 207.5,104.5C 203.894,104.789 200.394,104.456 197,103.5C 196.333,101.5 196.333,99.5 197,97.5C 199.277,96.8828 201.444,96.2161 203.5,95.5 Z"/></g>
<g><path style="opacity:1" fill="#ededed" d="M 123.5,96.5 C 125.288,96.2148 126.955,96.5481 128.5,97.5C 130.903,103.208 133.403,108.875 136,114.5C 138.5,108.833 141,103.167 143.5,97.5C 145.167,96.1667 146.833,96.1667 148.5,97.5C 144.422,106.909 140.256,116.243 136,125.5C 131.288,116.075 127.121,106.408 123.5,96.5 Z"/></g>
<g><path style="opacity:1" fill="#868686" d="M 92.5,100.5 C 89.5,100.5 86.5,100.5 83.5,100.5C 83.8264,109.349 83.493,118.016 82.5,126.5C 82.5,117.5 82.5,108.5 82.5,99.5C 86.0419,99.1872 89.3752,99.5206 92.5,100.5 Z"/></g>
<g><path style="opacity:1" fill="#f2f2f2" d="M 86.5,103.5 C 88.5,103.5 90.5,103.5 92.5,103.5C 92.5,104.833 92.5,106.167 92.5,107.5C 90.5,107.5 88.5,107.5 86.5,107.5C 86.5,106.167 86.5,104.833 86.5,103.5 Z"/></g>
<g><path style="opacity:1" fill="#141414" d="M 198.5,106.5 C 199.376,106.369 200.043,106.702 200.5,107.5C 198.667,108.968 198.334,110.635 199.5,112.5C 201.188,110.971 202.521,109.137 203.5,107C 204.5,106.333 205.5,106.333 206.5,107C 207.591,109.064 207.758,111.231 207,113.5C 206.107,114.711 205.274,114.711 204.5,113.5C 206.66,111.907 206.827,110.24 205,108.5C 203.708,110.249 202.542,112.082 201.5,114C 200.5,114.667 199.5,114.667 198.5,114C 197.221,111.502 197.221,109.002 198.5,106.5 Z"/></g>
<g><path style="opacity:1" fill="#1a1a1a" d="M 23.5,112.5 C 24.2625,113.268 25.2625,113.768 26.5,114C 23.1832,114.498 19.8499,114.665 16.5,114.5C 16.5,112.833 16.5,111.167 16.5,109.5C 18.2184,107.204 20.385,106.871 23,108.5C 24.2247,108.138 25.3914,107.638 26.5,107C 24.1698,104.833 21.5032,103.166 18.5,102C 17.6634,100.989 17.33,99.8221 17.5,98.5C 21.1791,98.6374 24.6791,97.9707 28,96.5C 28.4828,97.448 28.6495,98.448 28.5,99.5C 27.5,99.5 26.5,99.5 25.5,99.5C 25.4734,102.23 26.1401,104.73 27.5,107C 26.5613,109.32 24.8946,110.987 22.5,112C 22.7284,112.399 23.0618,112.565 23.5,112.5 Z"/></g>
<g><path style="opacity:1" fill="#8c8c8c" d="M 21.5,99.5 C 22.5,99.5 23.5,99.5 24.5,99.5C 24.4347,102.998 23.1014,103.498 20.5,101C 21.056,100.617 21.3893,100.117 21.5,99.5 Z"/></g>
<g><path style="opacity:1" fill="#dddddd" d="M 18.5,109.5 C 19.5,109.5 20.5,109.5 21.5,109.5C 21.5,110.5 21.5,111.5 21.5,112.5C 18.4331,112.879 17.4331,111.879 18.5,109.5 Z"/></g>
<g><path style="opacity:1" fill="#8e8e8e" d="M 16.5,109.5 C 16.5,111.167 16.5,112.833 16.5,114.5C 19.8499,114.665 23.1832,114.498 26.5,114C 25.2625,113.768 24.2625,113.268 23.5,112.5C 24.8333,112.5 26.1667,112.5 27.5,112.5C 27.5,113.5 27.5,114.5 27.5,115.5C 23.5,115.5 19.5,115.5 15.5,115.5C 15.2053,113.265 15.5386,111.265 16.5,109.5 Z"/></g>
<g><path style="opacity:1" fill="#060606" d="M 207.5,116.5 C 207.813,119.247 207.48,121.914 206.5,124.5C 205.824,123.398 205.158,122.398 204.5,121.5C 201.841,121.083 199.508,120.083 197.5,118.5C 197.833,118.5 198.167,118.5 198.5,118.5C 200.948,119.473 203.615,119.806 206.5,119.5C 206.263,118.209 206.596,117.209 207.5,116.5 Z"/></g>
<g><path style="opacity:1" fill="#7f7f7f" d="M 207.5,116.5 C 206.596,117.209 206.263,118.209 206.5,119.5C 203.615,119.806 200.948,119.473 198.5,118.5C 200.833,118.5 203.167,118.5 205.5,118.5C 205.281,117.325 205.614,116.325 206.5,115.5C 207.107,115.624 207.44,115.957 207.5,116.5 Z"/></g>
<g><path style="opacity:1" fill="#8e8e8e" d="M 197.5,118.5 C 199.508,120.083 201.841,121.083 204.5,121.5C 201.833,121.5 199.167,121.5 196.5,121.5C 196.263,120.209 196.596,119.209 197.5,118.5 Z"/></g>
<g><path style="opacity:1" fill="#181818" d="M 63.5,183.5 C 65.2252,183.843 65.7252,184.843 65,186.5C 63.5787,189.009 61.9121,191.343 60,193.5C 59.5,193 59,192.5 58.5,192C 60.8196,189.522 62.4863,186.689 63.5,183.5 Z"/></g>
<g><path style="opacity:1" fill="#181818" d="M 67.5,185.5 C 68.1174,185.611 68.6174,185.944 69,186.5C 69.3333,189.167 69.6667,191.833 70,194.5C 71.0836,193.335 71.9169,192.002 72.5,190.5C 73.365,189.417 74.365,189.251 75.5,190C 73.7929,193.248 71.9596,196.415 70,199.5C 68.7681,196.7 68.1015,193.7 68,190.5C 66.6667,192.5 65.3333,194.5 64,196.5C 63.5,196 63,195.5 62.5,195C 64.3068,191.885 65.9735,188.719 67.5,185.5 Z"/></g>
<g><path style="opacity:1" fill="#1e1e1e" d="M 152.5,187.5 C 159.049,187.907 159.049,188.907 152.5,190.5C 154.423,191.308 156.423,191.808 158.5,192C 159.357,192.689 160.023,193.522 160.5,194.5C 158.486,198.03 155.819,198.864 152.5,197C 153,196.5 153.5,196 154,195.5C 155.011,196.337 156.178,196.67 157.5,196.5C 157.5,195.5 157.5,194.5 157.5,193.5C 155.167,193.5 152.833,193.5 150.5,193.5C 150.259,191.114 150.925,189.114 152.5,187.5 Z"/></g>
<g><path style="opacity:1" fill="#1b1b1b" d="M 76.5,191.5 C 79.9,191.032 82.2333,192.365 83.5,195.5C 83.1667,195.833 82.8333,196.167 82.5,196.5C 81.485,193.832 79.8183,193.166 77.5,194.5C 78.4803,195.981 79.647,197.315 81,198.5C 81.6838,199.784 81.5171,200.951 80.5,202C 76.0022,203.477 73.8355,201.977 74,197.5C 75.258,200.055 77.0914,200.722 79.5,199.5C 76.1928,197.574 75.1928,194.907 76.5,191.5 Z"/></g>
<g><path style="opacity:1" fill="#161616" d="M 145.5,190.5 C 146.496,190.414 147.329,190.748 148,191.5C 149.069,194.208 150.236,196.875 151.5,199.5C 151.192,200.308 150.692,200.975 150,201.5C 147.876,200.378 146.043,198.878 144.5,197C 143.833,196.333 143.167,196.333 142.5,197C 144.319,199.056 144.985,201.223 144.5,203.5C 142.468,200.605 140.801,197.438 139.5,194C 142.18,193.665 144.513,194.499 146.5,196.5C 146.833,196.167 147.167,195.833 147.5,195.5C 146.544,193.925 145.877,192.258 145.5,190.5 Z"/></g>
<g><path style="opacity:1" fill="#1d1d1d" d="M 84.5,193.5 C 87.1437,194.493 89.8103,195.493 92.5,196.5C 91.3112,197.429 89.9778,197.762 88.5,197.5C 88.4011,200.605 87.4011,203.272 85.5,205.5C 85.1667,205.167 84.8333,204.833 84.5,204.5C 87.046,200.732 87.046,197.065 84.5,193.5 Z"/></g>
<g><path style="opacity:1" fill="#121212" d="M 132.5,195.5 C 139.265,195.464 141.265,198.631 138.5,205C 133.274,206.855 130.608,205.022 130.5,199.5C 130.752,197.927 131.418,196.594 132.5,195.5 Z"/></g>
<g><path style="opacity:1" fill="#141414" d="M 94.5,196.5 C 95.2389,196.369 95.9056,196.536 96.5,197C 95.5663,200.491 94.5663,203.991 93.5,207.5C 92.6426,203.766 92.9759,200.099 94.5,196.5 Z"/></g>
<g><path style="opacity:1" fill="#0a0a0a" d="M 97.5,198.5 C 100.107,197.198 102.773,197.364 105.5,199C 104.376,199.249 103.376,199.749 102.5,200.5C 101.926,203.177 101.259,205.843 100.5,208.5C 99.5985,205.205 99.5985,201.872 100.5,198.5C 99.5,198.5 98.5,198.5 97.5,198.5 Z"/></g>
<g><path style="opacity:1" fill="#060606" d="M 126.5,197.5 C 127.117,197.611 127.617,197.944 128,198.5C 129.057,201.549 129.224,204.549 128.5,207.5C 127.192,204.294 126.525,200.96 126.5,197.5 Z"/></g>
<g><path style="opacity:1" fill="#e6e6e6" d="M 133.5,196.5 C 137.143,197.382 138.31,199.716 137,203.5C 134.91,204.791 133.576,204.124 133,201.5C 132.36,199.735 132.527,198.068 133.5,196.5 Z"/></g>
<g><path style="opacity:1" fill="#202020" d="M 114.5,198.5 C 114.5,201.167 114.5,203.833 114.5,206.5C 113.027,209.41 110.86,210.077 108,208.5C 106.344,205.247 106.177,201.913 107.5,198.5C 108.318,201.107 108.818,203.774 109,206.5C 110.011,207.337 111.178,207.67 112.5,207.5C 111.945,203.988 112.612,200.988 114.5,198.5 Z"/></g>
<g><path style="opacity:1" fill="#171717" d="M 119.5,200.5 C 118.5,199.833 117.5,199.167 116.5,198.5C 119.024,197.2 121.691,197.2 124.5,198.5C 123.675,199.386 122.675,199.719 121.5,199.5C 121.742,202.681 121.742,205.681 121.5,208.5C 119.946,206.067 119.28,203.4 119.5,200.5 Z"/></g>
<g><path style="opacity:1" fill="#8d8d8d" d="M 114.5,198.5 C 115.167,198.5 115.833,198.5 116.5,198.5C 117.5,199.167 118.5,199.833 119.5,200.5C 118.167,200.5 116.833,200.5 115.5,200.5C 115.795,202.735 115.461,204.735 114.5,206.5C 114.5,203.833 114.5,201.167 114.5,198.5 Z"/></g>
</svg>
